<svg width="48.000031" height="48.000000" viewBox="0 0 48 48" fill="none" xmlns="http://www.w3.org/2000/svg" xmlns:xlink="http://www.w3.org/1999/xlink">
	<desc>
			Created with Pixso.
	</desc>
	<defs/>
	<path id="Shape" d="M31.2042 8.91217L28.3904 6.09839C28.0807 5.78711 28.0807 5.28412 28.3904 4.97284L31.8083 1.55408C31.9646 1.39777 32.1792 1.31403 32.4001 1.32318L40.5766 1.58221L31.2042 8.91217Z" fill="#B85C38" fill-opacity="1.000000" fill-rule="nonzero"/>
	<path id="Shape" d="M46.4203 7.42505L46.6793 15.6016C46.6885 15.8224 46.6047 16.037 46.4484 16.1934L43.0297 19.6138C42.7184 19.9235 42.2154 19.9235 41.9041 19.6138L39.0903 16.8L46.4203 7.42505Z" fill="#B85C38" fill-opacity="1.000000" fill-rule="nonzero"/>
	<path id="Shape" d="M14.8743 25.2413L6.19452 25.2413C5.98309 25.2411 5.7803 25.3251 5.63092 25.4747L0.233398 30.873C0.0839539 31.0224 0 31.225 0 31.4362C0 31.6475 0.0839539 31.8501 0.233398 31.9994L3.56857 35.3346L12.6621 44.4315L15.9973 47.7666C16.1466 47.9161 16.3492 48 16.5605 48C16.7717 48 16.9743 47.9161 17.1236 47.7666L22.5245 42.3724C22.6741 42.223 22.7581 42.0202 22.7579 41.8088L22.7579 33.1257L14.8743 25.2413Z" fill="#B85C38" fill-opacity="1.000000" fill-rule="nonzero"/>
	<path id="Shape" d="M43.0264 12.8523L37.9864 17.9006L36.8112 19.0674L32.3505 23.5281L31.1836 24.7033L26.7229 29.164L25.5477 30.3309L21.087 34.7916L19.9201 35.9668L15.4594 40.4275L14.2925 41.5944L12.058 43.8289L4.17114 35.942L6.40564 33.7158L6.40564 33.7075L7.57254 32.5406L12.0332 28.0799L13.2084 26.913L17.6691 22.4523L18.836 21.2771L23.2967 16.8164L24.4719 15.6495L28.9326 11.1888L30.0995 10.0137L35.1478 4.97363L43.0264 12.8523Z" fill="#ECF0F1" fill-opacity="1.000000" fill-rule="nonzero"/>
	<path id="Shape" d="M43.0296 12.854C46.1264 9.75714 47.5085 4.65094 47.9778 1.85284C48.0634 1.34589 47.8984 0.828735 47.5348 0.465149C47.1712 0.101624 46.6541 -0.0634766 46.1471 0.0222168C43.3491 0.491455 38.2428 1.87354 35.146 4.9704L43.0296 12.854Z" fill="#95A5A5" fill-opacity="1.000000" fill-rule="nonzero"/>
	<path id="Shape" d="M31.7877 12.8771C31.4649 13.198 30.9436 13.198 30.6208 12.8771L28.9325 11.1888L30.0994 10.0137L31.7877 11.702C32.1104 12.0272 32.1104 12.5519 31.7877 12.8771Z" fill="#D1D4D1" fill-opacity="1.000000" fill-rule="nonzero"/>
	<path id="Shape" d="M26.1601 18.5048C26.0057 18.6634 25.7938 18.7529 25.5725 18.7531C25.3515 18.7513 25.1403 18.662 24.9849 18.5048L23.2966 16.8165L24.4718 15.6497L26.1601 17.338C26.481 17.6607 26.481 18.1821 26.1601 18.5048Z" fill="#D1D4D1" fill-opacity="1.000000" fill-rule="nonzero"/>
	<path id="Shape" d="M20.5241 24.1407C20.2013 24.4615 19.68 24.4615 19.3572 24.1407L17.6689 22.4524L18.8358 21.2772L20.5241 22.9655C20.8469 23.2908 20.8469 23.8154 20.5241 24.1407Z" fill="#D1D4D1" fill-opacity="1.000000" fill-rule="nonzero"/>
	<path id="Shape" d="M14.8965 29.7682C14.7413 29.9246 14.5292 30.0112 14.309 30.0082C14.0911 30.011 13.8817 29.9243 13.7296 29.7682L12.0331 28.08L13.2083 26.9131L14.8965 28.6014C15.2174 28.9241 15.2174 29.4455 14.8965 29.7682Z" fill="#D1D4D1" fill-opacity="1.000000" fill-rule="nonzero"/>
	<path id="Shape" d="M9.26898 35.4041C9.11075 35.5559 8.90063 35.6417 8.6814 35.6441C8.46182 35.6432 8.25116 35.5572 8.09381 35.4041L6.40552 33.7075L7.57242 32.5406L9.26898 34.2289C9.59171 34.5542 9.59171 35.0789 9.26898 35.4041Z" fill="#D1D4D1" fill-opacity="1.000000" fill-rule="nonzero"/>
	<path id="Shape" d="M37.9862 17.9007L36.811 19.0676L32.8717 15.1282C32.5965 14.8486 32.5518 14.4155 32.7641 14.0855C32.7976 14.0421 32.8335 14.0007 32.8717 13.9614C33.1945 13.6405 33.7158 13.6405 34.0386 13.9614L37.9862 17.9007Z" fill="#D1D4D1" fill-opacity="1.000000" fill-rule="nonzero"/>
	<path id="Shape" d="M32.3504 23.5282L31.1835 24.7034L27.2442 20.7558C26.963 20.4274 26.9819 19.938 27.2876 19.6323C27.5933 19.3266 28.0827 19.3077 28.4111 19.5889L32.3504 23.5282Z" fill="#D1D4D1" fill-opacity="1.000000" fill-rule="nonzero"/>
	<path id="Shape" d="M26.7229 29.1641L25.5477 30.3311L21.6084 26.3917C21.2839 26.0672 21.2839 25.5411 21.6084 25.2166C21.9329 24.892 22.459 24.892 22.7835 25.2166L26.7229 29.1641Z" fill="#D1D4D1" fill-opacity="1.000000" fill-rule="nonzero"/>
	<path id="Shape" d="M21.0869 34.7916L19.92 35.9668L15.9807 32.0192C15.6996 31.6909 15.7184 31.2014 16.0241 30.8957C16.3298 30.59 16.8193 30.5711 17.1476 30.8523L21.0869 34.7916Z" fill="#D1D4D1" fill-opacity="1.000000" fill-rule="nonzero"/>
	<path id="Shape" d="M15.4593 40.4276L14.2924 41.5944L10.3448 37.6552C10.0203 37.3306 10.0203 36.8045 10.3448 36.48C10.6693 36.1555 11.1955 36.1555 11.52 36.48L15.4593 40.4276Z" fill="#D1D4D1" fill-opacity="1.000000" fill-rule="nonzero"/>
</svg>
