<svg width="48.000031" height="48.000000" viewBox="0 0 48 48" fill="none" xmlns="http://www.w3.org/2000/svg" xmlns:xlink="http://www.w3.org/1999/xlink">
	<desc>
			Created with Pixso.
	</desc>
	<defs/>
	<path id="Shape" d="M3.72418 46.6328C3.45346 46.6324 3.20004 46.4996 3.04562 46.2773C2.89124 46.0549 2.85535 45.7711 2.94955 45.5173L5.44806 38.751C5.54504 38.4662 5.78894 38.2565 6.08502 38.2032C6.38113 38.15 6.68277 38.2617 6.87286 38.4949C7.06296 38.728 7.11154 39.046 6.99976 39.3253L4.50211 46.0917C4.38199 46.4174 4.07135 46.6334 3.72418 46.6328Z" fill="#7F8C8D" fill-opacity="1.000000" fill-rule="nonzero"/>
	<path id="Shape" d="M5.99094 40.4971C5.5802 40.4998 5.22961 40.2009 5.16736 39.7949C5.1051 39.3889 5.34998 38.9988 5.74265 38.8783L14.1791 36.2764C14.4617 36.1891 14.7694 36.2593 14.9863 36.4604C15.2032 36.6616 15.2962 36.9633 15.2304 37.2517C15.1646 37.54 14.95 37.7715 14.6673 37.8586L6.23508 40.4606C6.15594 40.4847 6.07367 40.4971 5.99094 40.4971Z" fill="#7F8C8D" fill-opacity="1.000000" fill-rule="nonzero"/>
	<path id="Shape" d="M23.9999 45.5173C23.5429 45.5173 23.1724 45.1467 23.1724 44.6897L23.1724 41.3794C23.1724 40.9222 23.5429 40.5518 23.9999 40.5518C24.457 40.5518 24.8275 40.9222 24.8275 41.3794L24.8275 44.6897C24.8275 45.1467 24.457 45.5173 23.9999 45.5173Z" fill="#7F8C8D" fill-opacity="1.000000" fill-rule="nonzero"/>
	<path id="Shape" d="M44.4696 47.1625C44.1233 47.1625 43.8135 46.9469 43.6933 46.6221L41.1535 39.7415C41.0476 39.4634 41.0993 39.1499 41.2888 38.9204C41.4782 38.6909 41.7763 38.5808 42.0694 38.632C42.3625 38.6832 42.6056 38.8878 42.706 39.168L45.2459 46.0486C45.3395 46.3024 45.3031 46.5861 45.1484 46.8081C44.9937 47.03 44.7402 47.1624 44.4696 47.1625Z" fill="#7F8C8D" fill-opacity="1.000000" fill-rule="nonzero"/>
	<path id="Shape" d="M41.4058 40.3108C41.3217 40.3112 41.238 40.299 41.1576 40.2744L33.4494 37.8967C33.0125 37.7618 32.7675 37.2983 32.9024 36.8615C33.0372 36.4244 33.5007 36.1796 33.9377 36.3143L41.6458 38.692C42.0376 38.8123 42.2823 39.201 42.2214 39.6062C42.1605 40.0115 41.8123 40.311 41.4025 40.3108L41.4058 40.3108Z" fill="#7F8C8D" fill-opacity="1.000000" fill-rule="nonzero"/>
	<path id="Shape" d="M0.827576 44.6897L7.44827 44.6897C7.90533 44.6897 8.27585 45.0602 8.27585 45.5173C8.27585 46.8884 7.16431 48 5.79309 48L2.48276 48C1.11157 48 0 46.8884 0 45.5173C0 45.0602 0.370514 44.6897 0.827576 44.6897Z" fill="#3F5C6C" fill-opacity="1.000000" fill-rule="nonzero"/>
	<path id="Shape" d="M20.6896 44.6897L27.3103 44.6897C27.7674 44.6897 28.1379 45.0602 28.1379 45.5173C28.1379 46.8884 27.0264 48 25.6552 48L22.3448 48C20.9736 48 19.8621 46.8884 19.8621 45.5173C19.8621 45.0602 20.2326 44.6897 20.6896 44.6897Z" fill="#3F5C6C" fill-opacity="1.000000" fill-rule="nonzero"/>
	<path id="Shape" d="M13.2414 23.9926L10.9904 27.6993L10.8331 31.3076L13.1917 37.4482L13.6635 38.6648C13.9078 39.3026 14.5199 39.7238 15.2028 39.7241L32.7973 39.7241C33.4802 39.7238 34.0923 39.3026 34.3366 38.6648L34.8083 37.4482L37.1669 31.3159L37.0097 27.6993L34.7586 23.9926L13.2414 23.9926Z" fill="#E0C097" fill-opacity="1.000000" fill-rule="nonzero"/>
	<path id="Shape" d="M45.5172 48L42.2069 48C40.8357 48 39.7242 46.8884 39.7242 45.5172C39.7242 45.0602 40.0947 44.6897 40.5517 44.6897L47.1724 44.6897C47.6295 44.6897 48 45.0602 48 45.5172C48 46.8884 46.8884 48 45.5172 48Z" fill="#3F5C6C" fill-opacity="1.000000" fill-rule="nonzero"/>
	<path id="Shape" d="M34.7587 24L34.7587 6.62073L28.9656 2.48279L27.2028 2.48279L20.7973 2.48279L19.0345 2.48279L13.2415 6.62073L13.2415 24L34.7587 24Z" fill="#B85C38" fill-opacity="1.000000" fill-rule="nonzero"/>
	<path id="Shape" d="M19.7048 19.3241L19.7048 19.3158C17.421 17.7073 16.2319 14.9541 16.6265 12.1887C17.021 9.42334 18.9326 7.11267 21.5751 6.20691L21.5751 6.19861L26.4248 6.19861L26.4248 6.20691C29.0673 7.11267 30.9789 9.42334 31.3734 12.1887C31.768 14.9541 30.5789 17.7073 28.2951 19.3158L28.2951 19.3241L19.7048 19.3241Z" fill="#547580" fill-opacity="1.000000" fill-rule="nonzero"/>
	<path id="Shape" d="M9.10352 16.5518L7.64612 23.8345C7.59637 24.0781 7.65884 24.3313 7.81625 24.5238C7.97366 24.7164 8.20929 24.8279 8.45798 24.8276L12.4138 24.8276C12.8709 24.8276 13.2414 24.4572 13.2414 24L13.2414 16.5518L9.10352 16.5518Z" fill="#3F5C6C" fill-opacity="1.000000" fill-rule="nonzero"/>
	<path id="Shape" d="M9.93109 12.4138L12.4138 12.4138C12.8709 12.4138 13.2415 12.7843 13.2415 13.2415L13.2415 16.5518L9.10352 16.5518L9.10352 13.2415C9.10352 12.7843 9.47403 12.4138 9.93109 12.4138Z" fill="#95A5A5" fill-opacity="1.000000" fill-rule="nonzero"/>
	<path id="Shape" d="M38.8965 16.5518L40.3539 23.8345C40.4036 24.0781 40.3411 24.3313 40.1837 24.5238C40.0263 24.7164 39.7907 24.8279 39.542 24.8276L35.5861 24.8276C35.1291 24.8276 34.7585 24.4572 34.7585 24L34.7585 16.5518L38.8965 16.5518Z" fill="#3F5C6C" fill-opacity="1.000000" fill-rule="nonzero"/>
	<path id="Shape" d="M38.8965 16.5518L34.7585 16.5518L34.7585 13.2415C34.7585 12.7843 35.1291 12.4138 35.5862 12.4138L38.0689 12.4138C38.526 12.4138 38.8965 12.7843 38.8965 13.2415L38.8965 16.5518Z" fill="#95A5A5" fill-opacity="1.000000" fill-rule="nonzero"/>
	<path id="Shape" d="M19.862 18.2151L19.7048 19.3158L19.7048 19.3241L19.0344 23.9999L23.9999 23.9999L28.9655 23.9999L28.2951 19.3241L28.2951 19.3158L28.1379 18.2151L19.862 18.2151Z" fill="#7F8C8D" fill-opacity="1.000000" fill-rule="nonzero"/>
	<path id="Shape" d="M20.6565 12.6537L21.5751 6.20679L21.5751 6.19861L21.6579 5.65234L26.342 5.65234L26.4248 6.19861L26.4248 6.20679L27.3434 12.6537L20.6565 12.6537Z" fill="#95A5A5" fill-opacity="1.000000" fill-rule="nonzero"/>
	<path id="Oval" d="M27.3104 3.3103C27.3104 5.13855 25.8283 6.62073 24 6.62073C22.1718 6.62073 20.6897 5.13855 20.6897 3.3103C20.6897 1.48206 22.1718 0 24 0C25.8283 0 27.3104 1.48206 27.3104 3.3103Z" fill="#7F8C8D" fill-opacity="1.000000" fill-rule="evenodd"/>
	<path id="Oval" d="M24.8275 3.31042C24.8275 3.76746 24.457 4.13794 23.9999 4.13794C23.5429 4.13794 23.1724 3.76746 23.1724 3.31042C23.1724 2.85327 23.5429 2.48279 23.9999 2.48279C24.457 2.48279 24.8275 2.85327 24.8275 3.31042Z" fill="#95A5A5" fill-opacity="1.000000" fill-rule="evenodd"/>
	<path id="Oval" d="M10.7586 3.3103C10.7586 5.13855 9.27655 6.62073 7.44827 6.62073C5.62003 6.62073 4.13794 5.13855 4.13794 3.3103C4.13794 1.48206 5.62003 0 7.44827 0C9.27655 0 10.7586 1.48206 10.7586 3.3103Z" fill="#7F8C8D" fill-opacity="1.000000" fill-rule="evenodd"/>
	<path id="Oval" d="M8.27579 3.31042C8.27579 3.76746 7.90524 4.13794 7.44818 4.13794C6.99112 4.13794 6.62061 3.76746 6.62061 3.31042C6.62061 2.85327 6.99112 2.48279 7.44818 2.48279C7.90524 2.48279 8.27579 2.85327 8.27579 3.31042Z" fill="#95A5A5" fill-opacity="1.000000" fill-rule="evenodd"/>
	<path id="Rectangle-path" d="M21.5172 12.4138L26.4828 12.4138C27.3969 12.4138 28.1379 13.1549 28.1379 14.069L28.1379 19.0345C28.1379 19.9486 27.3969 20.6897 26.4828 20.6897L21.5172 20.6897C20.6031 20.6897 19.8621 19.9486 19.8621 19.0345L19.8621 14.069C19.8621 13.1549 20.6031 12.4138 21.5172 12.4138Z" fill="#BDC3C7" fill-opacity="1.000000" fill-rule="evenodd"/>
	<path id="Shape" d="M17.3793 24L30.6207 24L30.6207 25.6552C30.6207 26.5693 29.8796 27.3103 28.9655 27.3103L19.0345 27.3103C18.1203 27.3103 17.3793 26.5693 17.3793 25.6552L17.3793 24Z" fill="#BDC3C7" fill-opacity="1.000000" fill-rule="nonzero"/>
	<path id="Shape" d="M13.2413 6.62073L10.6758 4.05518L10.651 2.48279L19.0345 2.48279L13.2413 6.62073Z" fill="#D25627" fill-opacity="1.000000" fill-rule="nonzero"/>
	<path id="Shape" d="M23.1724 18.2068C22.7154 18.2068 22.3448 17.8363 22.3448 17.3793L22.3448 15.7241C22.3448 15.267 22.7154 14.8965 23.1724 14.8965C23.6295 14.8965 24 15.267 24 15.7241L24 17.3793C24 17.8363 23.6295 18.2068 23.1724 18.2068Z" fill="#95A5A5" fill-opacity="1.000000" fill-rule="nonzero"/>
	<path id="Rectangle-path" d="M16.5517 30.6206L18.2069 30.6206C18.6639 30.6206 19.0345 30.9911 19.0345 31.4482L19.0345 34.7585C19.0345 35.2156 18.6639 35.5862 18.2069 35.5862L16.5517 35.5862C16.0946 35.5862 15.7241 35.2156 15.7241 34.7585L15.7241 31.4482C15.7241 30.9911 16.0946 30.6206 16.5517 30.6206Z" fill="#ECF0F1" fill-opacity="1.000000" fill-rule="evenodd"/>
	<path id="Shape" d="M6.27222 40.5518C5.73077 40.5524 5.2233 40.2881 4.91333 39.8442C4.60336 39.4003 4.53012 38.8329 4.71716 38.3247L8.37595 28.3937C8.56821 27.8229 9.05548 27.4015 9.64816 27.2936C10.2408 27.1858 10.8453 27.4084 11.2264 27.875C11.6075 28.3416 11.705 28.9783 11.481 29.5375L7.82309 39.4685C7.58377 40.1185 6.96494 40.5508 6.27222 40.5518Z" fill="#BDC3C7" fill-opacity="1.000000" fill-rule="nonzero"/>
	<path id="Shape" d="M24 41.3793C23.0859 41.3793 22.3448 40.6382 22.3448 39.7241L22.3448 28.9655C22.3448 28.0514 23.0859 27.3103 24 27.3103C24.9142 27.3103 25.6552 28.0514 25.6552 28.9655L25.6552 39.7241C25.6552 40.6382 24.9142 41.3793 24 41.3793Z" fill="#BDC3C7" fill-opacity="1.000000" fill-rule="nonzero"/>
	<path id="Shape" d="M41.7277 40.5518C42.2691 40.5524 42.7766 40.2881 43.0865 39.8442C43.3965 39.4003 43.4698 38.8329 43.2827 38.3247L39.6239 28.3937C39.4316 27.8229 38.9444 27.4015 38.3517 27.2936C37.759 27.1858 37.1546 27.4084 36.7735 27.875C36.3924 28.3416 36.2949 28.9783 36.5188 29.5375L40.1768 39.4685C40.4161 40.1185 41.0349 40.5508 41.7277 40.5518Z" fill="#BDC3C7" fill-opacity="1.000000" fill-rule="nonzero"/>
</svg>
