<svg width="47.999996" height="48.009521" viewBox="0 0 48 48.0095" fill="none" xmlns="http://www.w3.org/2000/svg" xmlns:xlink="http://www.w3.org/1999/xlink">
	<desc>
			Created with Pixso.
	</desc>
	<defs/>
	<path id="Rectangle-path" d="M8.3361 1.13666L18.6618 11.4624C19.2896 12.0901 19.2896 13.1079 18.6618 13.7357L13.7357 18.6618C13.1079 19.2896 12.0901 19.2896 11.4624 18.6618L1.13667 8.33606C0.508919 7.70831 0.508919 6.69055 1.13666 6.06281L6.06283 1.13666C6.69057 0.508911 7.70835 0.508911 8.3361 1.13666Z" fill="#E0C097" fill-opacity="1.000000" fill-rule="evenodd"/>
	<path id="Shape" d="M16.7679 15.6324L13.1353 12.0007L16.1674 8.96863L15.0308 7.83197L11.9987 10.8641L8.93523 7.8006L11.9673 4.76855L10.8307 3.6319L7.79859 6.664L4.16764 3.03223L3.03101 4.16888L6.66196 7.8006L3.63067 10.8327L4.76731 11.9694L7.79859 8.93726L10.862 12.0007L7.82994 15.0328L8.96658 16.1694L11.9987 13.1373L15.6304 16.7691L16.7679 15.6324Z" fill="#E0C097" fill-opacity="1.000000" fill-rule="nonzero"/>
	<path id="Rectangle-path" d="M17.3982 14.9977L19.7986 17.3981L17.3982 19.7984L14.9978 17.3981L17.3982 14.9977Z" fill="#7F8C8D" fill-opacity="1.000000" fill-rule="nonzero"/>
	<path id="Rectangle-path" d="M39.6639 46.8729L29.3382 36.5471C28.7104 35.9194 28.7104 34.9016 29.3382 34.2739L34.2643 29.3477C34.8921 28.72 35.9099 28.72 36.5376 29.3477L46.8633 39.6735C47.4911 40.3012 47.4911 41.319 46.8633 41.9467L41.9372 46.8729C41.3094 47.5006 40.2916 47.5006 39.6639 46.8729Z" fill="#E0C097" fill-opacity="1.000000" fill-rule="evenodd"/>
	<path id="Shape" d="M44.9698 43.8344L41.3373 40.2018L44.3686 37.1706L43.2319 36.0339L40.2006 39.0652L37.1372 36.0018L40.1693 32.9705L39.0327 31.8339L36.0006 34.8652L32.3688 31.2334L31.2322 32.3701L34.8639 36.0018L31.8318 39.0339L32.9685 40.1705L36.0006 37.1384L39.064 40.2018L36.0319 43.2339L37.1685 44.3706L40.2006 41.3385L43.8324 44.9711L44.9698 43.8344Z" fill="#E0C097" fill-opacity="1.000000" fill-rule="nonzero"/>
	<path id="Rectangle-path" d="M30.5999 33.0081L28.1995 30.6077L30.5999 28.2073L33.0002 30.6077L30.5999 33.0081Z" fill="#7F8C8D" fill-opacity="1.000000" fill-rule="nonzero"/>
	<path id="Shape" d="M23.4003 35.4046L22.09 38.4512C21.9814 38.7107 21.7501 38.8986 21.4738 38.952C21.1975 39.0052 20.9129 38.9169 20.7155 38.7164L9.28484 27.2858C9.08439 27.0883 8.99599 26.8037 9.0493 26.5275C9.10262 26.2512 9.29058 26.0199 9.55011 25.9112L12.5967 24.601L23.4003 35.4046Z" fill="#95A5A5" fill-opacity="1.000000" fill-rule="nonzero"/>
	<path id="Shape" d="M25.8038 33.0012L23.4003 35.4047L12.5967 24.601L15.0002 22.1975L25.8038 33.0012Z" fill="#B85C38" fill-opacity="1.000000" fill-rule="nonzero"/>
	<path id="Shape" d="M32.9982 25.8067C31.2298 27.5751 28.0144 30.7825 25.8038 33.0011L15.0002 22.1974C17.2188 19.9789 20.4342 16.7715 22.2026 15.0111L27.5964 20.4049L32.9982 25.8067Z" fill="#547580" fill-opacity="1.000000" fill-rule="nonzero"/>
	<path id="Shape" d="M33.6011 25.2038L32.9982 25.8067L27.5964 20.4048L22.2026 15.0111C22.4277 14.778 22.6287 14.577 22.7975 14.4001C25.201 12.0047 29.397 12.5995 29.397 12.5995L29.7909 12.6558L35.3455 18.2104L35.4017 18.6042C35.4017 18.6042 35.9966 22.8003 33.6011 25.2038Z" fill="#95A5A5" fill-opacity="1.000000" fill-rule="nonzero"/>
	<path id="Shape" d="M44.4047 8.40027C45.3433 11.1298 44.6449 14.1555 42.6049 16.1975C39.6234 19.1811 34.7877 19.1827 31.8041 16.2012C28.8205 13.2196 28.8189 8.38391 31.8005 5.40033C33.8425 3.36041 36.8682 2.66199 39.5978 3.60052L44.4047 8.40027Z" fill="#BDC3C7" fill-opacity="1.000000" fill-rule="nonzero"/>
	<path id="Oval" d="M39.7464 10.8007C39.7464 12.2067 38.6067 13.3464 37.2007 13.3464C35.7947 13.3464 34.6549 12.2067 34.6549 10.8007C34.6549 9.39465 35.7947 8.25488 37.2007 8.25488C38.6067 8.25488 39.7464 9.39465 39.7464 10.8007Z" fill="#95A5A5" fill-opacity="1.000000" fill-rule="evenodd"/>
	<path id="Shape" d="M46.2013 6.60046L44.4047 8.40027L39.601 3.60052L41.4008 1.79993C42.0637 1.13733 43.1381 1.13733 43.801 1.79993L46.2013 4.2002C46.8639 4.8631 46.8639 5.9375 46.2013 6.60046Z" fill="#95A5A5" fill-opacity="1.000000" fill-rule="nonzero"/>
	<path id="Oval" d="M26.3986 24.0012C26.3986 25.3259 25.3247 26.3998 24 26.3998C22.6752 26.3998 21.6013 25.3259 21.6013 24.0012C21.6013 22.6765 22.6752 21.6025 24 21.6025C25.3247 21.6025 26.3986 22.6765 26.3986 24.0012Z" fill="#B85C38" fill-opacity="1.000000" fill-rule="evenodd"/>
	<path id="Shape" d="M11.7687 29.7697L6.30261 32.6635L10.3701 34.0139L7.6611 40.3401L13.9873 37.6312L15.3378 41.6987L18.2316 36.2325L11.7687 29.7697Z" fill="#F29C1F" fill-opacity="1.000000" fill-rule="nonzero"/>
</svg>
