<svg width="48.000000" height="48.035767" viewBox="0 0 48 48.0358" fill="none" xmlns="http://www.w3.org/2000/svg" xmlns:xlink="http://www.w3.org/1999/xlink">
	<desc>
			Created with Pixso.
	</desc>
	<defs/>
	<path id="Shape" d="M44.53 22.1549C44.49 22.2303 44.4398 22.2999 44.381 22.3619L39.8754 26.8674L21.1408 8.13293L25.6381 3.61902C25.7 3.56018 25.7697 3.51001 25.8452 3.46997L44.53 22.1549Z" fill="#2980BA" fill-opacity="1.000000" fill-rule="nonzero"/>
	<path id="Shape" d="M39.8754 26.8676L22.9215 43.8545C22.6123 44.1685 22.1901 44.3452 21.7495 44.3452C21.3089 44.3452 20.8868 44.1685 20.5776 43.8545L4.17863 27.4639C3.86758 27.1531 3.69281 26.7316 3.69281 26.2919C3.69281 25.8523 3.86758 25.4307 4.17863 25.12L21.1408 8.13293L39.8754 26.8676Z" fill="#3B97D3" fill-opacity="1.000000" fill-rule="nonzero"/>
	<path id="Shape" d="M8.27672 31.5552L5.34644 33.3168L2.42031 35.0735L0.399424 36.286C0.18181 36.4177 0.0367794 36.6421 0.00606728 36.8947C-0.0246468 37.1471 0.0623646 37.3997 0.24206 37.5797L10.455 47.7935C10.6351 47.9734 10.888 48.0605 11.1408 48.0297C11.3935 47.9988 11.618 47.8533 11.7495 47.6353L12.9662 45.6152L14.7228 42.6866L16.4803 39.7588L8.27672 31.5552Z" fill="#7F8C8D" fill-opacity="1.000000" fill-rule="nonzero"/>
	<path id="Shape" d="M13.5691 47.0507C13.3495 47.0505 13.1389 46.9633 12.9836 46.808L1.22767 35.052C0.913795 34.7271 0.918285 34.2104 1.23776 33.891C1.55724 33.5715 2.07381 33.567 2.39879 33.881L14.1547 45.6351C14.3915 45.8721 14.4623 46.2283 14.3342 46.5377C14.206 46.847 13.9041 47.049 13.5691 47.049L13.5691 47.0507Z" fill="#95A5A5" fill-opacity="1.000000" fill-rule="nonzero"/>
	<path id="Shape" d="M15.3804 44.1768C15.1608 44.1766 14.9502 44.0894 14.7949 43.9341L4.10408 33.2407C3.7902 32.9158 3.79469 32.3992 4.11416 32.0797C4.43364 31.7603 4.95021 31.7557 5.27519 32.0697L15.966 42.7629C16.2028 42.9998 16.2736 43.356 16.1455 43.6654C16.0173 43.9749 15.7154 44.1766 15.3804 44.1768Z" fill="#95A5A5" fill-opacity="1.000000" fill-rule="nonzero"/>
	<path id="Shape" d="M47.288 8.51379L44.6046 21.9395C44.5885 22.014 44.5635 22.0863 44.53 22.1548L25.8452 3.46997C25.9137 3.43652 25.986 3.4115 26.0605 3.39539L39.4861 0.711914L47.288 8.51379Z" fill="#BDC3C7" fill-opacity="1.000000" fill-rule="nonzero"/>
	<path id="Shape" d="M22.9215 27.4639L17.0576 33.3195C16.7346 33.6405 16.2129 33.6405 15.8898 33.3195L5.93451 23.364L7.69036 21.6L8.86645 20.4321L10.0343 19.2643L11.2021 18.0883L12.9579 16.3324L22.9215 26.2877C23.2445 26.6133 23.2445 27.1383 22.9215 27.4639Z" fill="#2980BA" fill-opacity="1.000000" fill-rule="nonzero"/>
	<path id="Shape" d="M19.4015 27.4639C19.0785 27.7849 18.5568 27.7849 18.2337 27.4639L10.0342 19.2644L11.202 18.0883L19.4015 26.2877C19.7245 26.6133 19.7245 27.1383 19.4015 27.4639Z" fill="#285680" fill-opacity="1.000000" fill-rule="nonzero"/>
	<path id="Shape" d="M17.0576 29.7994C16.9063 29.9578 16.6969 30.0476 16.4778 30.0479C16.2563 30.0477 16.0443 29.9581 15.8898 29.7994L7.69031 21.6L8.86639 20.4321L17.0576 28.6316C17.2164 28.7843 17.3062 28.9951 17.3062 29.2156C17.3062 29.4359 17.2164 29.6467 17.0576 29.7994Z" fill="#285680" fill-opacity="1.000000" fill-rule="nonzero"/>
	<path id="Shape" d="M31.7008 35.0752L24.6774 42.0986L20.5776 37.9989C20.2565 37.6758 20.2565 37.1541 20.5776 36.8311L26.4332 30.9755C26.7563 30.6543 27.278 30.6543 27.601 30.9755L31.7008 35.0752Z" fill="#2980BA" fill-opacity="1.000000" fill-rule="nonzero"/>
	<path id="Shape" d="M29.9449 36.8312L28.7771 37.9989L26.4332 35.655C26.1518 35.3264 26.1707 34.8365 26.4767 34.5306C26.7826 34.2247 27.2724 34.2058 27.601 34.4872L29.9449 36.8312Z" fill="#285680" fill-opacity="1.000000" fill-rule="nonzero"/>
	<path id="Shape" d="M27.601 39.175L26.4332 40.3429L24.0893 37.9989C23.853 37.7965 23.75 37.4788 23.8228 37.1761C23.8956 36.8737 24.1318 36.6375 24.4344 36.5646C24.7369 36.4918 25.0547 36.5948 25.2571 36.8312L27.601 39.175Z" fill="#285680" fill-opacity="1.000000" fill-rule="nonzero"/>
	<path id="Shape" d="M39.8721 23.0112C39.6523 23.0118 39.4415 22.9244 39.2866 22.7686L25.2307 8.7135C25.0153 8.50562 24.929 8.19763 25.0048 7.90808C25.0806 7.61853 25.3067 7.39233 25.5963 7.31653C25.8859 7.24072 26.1938 7.32715 26.4018 7.54248L40.4577 21.5975C40.6945 21.8344 40.7653 22.1906 40.6371 22.5C40.509 22.8094 40.207 23.0112 39.8721 23.0112Z" fill="#285680" fill-opacity="1.000000" fill-rule="nonzero"/>
	<path id="Shape" d="M47.9837 5.05188L47.288 8.51392L39.4861 0.711914L42.9481 0.0162354C43.2208 -0.0380859 43.5028 0.0456543 43.7018 0.239868L47.7601 4.29822C47.9544 4.49719 48.038 4.77917 47.9837 5.05188Z" fill="#95A5A5" fill-opacity="1.000000" fill-rule="nonzero"/>
	<path id="Shape" d="M35.4593 1.51123L38.7647 4.81665C38.9756 5.02759 39.0568 5.33569 38.9773 5.62317C38.8977 5.91064 38.6698 6.13306 38.3804 6.20569L35.5694 6.90796C35.2871 6.97864 34.9884 6.896 34.7826 6.69019L30.581 2.48938L35.4593 1.51123Z" fill="#95A5A5" fill-opacity="1.000000" fill-rule="nonzero"/>
</svg>
