<svg width="48.000000" height="42.206909" viewBox="0 0 48 42.2069" fill="none" xmlns="http://www.w3.org/2000/svg" xmlns:xlink="http://www.w3.org/1999/xlink">
	<desc>
			Created with Pixso.
	</desc>
	<defs/>
	<path id="Shape" d="M7.44827 16.5518C7.44827 7.4104 14.8587 0 24 0C33.1413 0 40.5517 7.4104 40.5517 16.5518L7.44827 16.5518Z" fill="#90BAE1" fill-opacity="1.000000" fill-rule="nonzero"/>
	<path id="Shape" d="M24 20.6897L45.931 20.6897C47.0737 20.6897 48 19.7634 48 18.6207C48 17.478 47.0737 16.5518 45.931 16.5518L2.06897 16.5518C0.9263 16.5518 0 17.478 0 18.6207C0 19.7634 0.9263 20.6897 2.06897 20.6897L24 20.6897Z" fill="#D25627" fill-opacity="1.000000" fill-rule="nonzero"/>
	<path id="Shape" d="M45.5172 20.6897L38.7964 27.4105C38.3307 27.8763 37.699 28.1381 37.0403 28.1379L10.9597 28.1379C10.301 28.1381 9.66928 27.8763 9.20358 27.4105L2.48276 20.6897L45.5172 20.6897Z" fill="#B85C38" fill-opacity="1.000000" fill-rule="nonzero"/>
	<path id="Shape" d="M15.7241 28.1379L32.2758 28.1379L32.2758 30.6207C32.2758 31.0778 31.9053 31.4482 31.4483 31.4482L16.5517 31.4482C16.0946 31.4482 15.7241 31.0778 15.7241 30.6207L15.7241 28.1379Z" fill="#802F34" fill-opacity="1.000000" fill-rule="nonzero"/>
	<path id="Shape" d="M29.7931 31.4482C29.7931 31.4482 26.8966 42.2069 24 42.2069C21.1035 42.2069 18.2069 31.4482 18.2069 31.4482L29.7931 31.4482Z" fill="#F0C419" fill-opacity="1.000000" fill-rule="nonzero"/>
	<path id="Shape" d="M21.6414 31.4482C22.2515 33.5692 23.0405 35.6345 24 37.6221C24.9594 35.6345 25.7485 33.5692 26.3586 31.4482L21.6414 31.4482Z" fill="#F29C1F" fill-opacity="1.000000" fill-rule="nonzero"/>
	<path id="Oval" d="M23 4.5824C23.7233 5.83521 23.091 7.55432 21.5877 8.42236C20.0844 9.29028 18.2793 8.97839 17.556 7.72559C16.8327 6.47278 17.4651 4.75366 18.9684 3.88574C20.4717 3.0177 22.2767 3.32971 23 4.5824Z" fill="#B0D3F0" fill-opacity="1.000000" fill-rule="evenodd"/>
	<path id="Oval" d="M15.7241 11.5862C15.7241 12.5004 14.9831 13.2413 14.069 13.2413C13.1548 13.2413 12.4138 12.5004 12.4138 11.5862C12.4138 10.6721 13.1548 9.93103 14.069 9.93103C14.9831 9.93103 15.7241 10.6721 15.7241 11.5862Z" fill="#B0D3F0" fill-opacity="1.000000" fill-rule="evenodd"/>
	<path id="Shape" d="M20.6897 12.4138C21.6038 12.4138 22.3448 13.1549 22.3448 14.069L22.3448 16.5518L19.0345 16.5518L19.0345 14.069C19.0345 13.1549 19.7755 12.4138 20.6897 12.4138Z" fill="#547580" fill-opacity="1.000000" fill-rule="nonzero"/>
	<path id="Shape" d="M27.3103 12.4138C28.2245 12.4138 28.9655 13.1549 28.9655 14.069L28.9655 16.5518L25.6552 16.5518L25.6552 14.069C25.6552 13.1549 26.3962 12.4138 27.3103 12.4138Z" fill="#547580" fill-opacity="1.000000" fill-rule="nonzero"/>
</svg>
