<svg width="12.008362" height="12.000000" viewBox="0 0 12.0084 12" fill="none" xmlns="http://www.w3.org/2000/svg" xmlns:xlink="http://www.w3.org/1999/xlink">
	<desc>
			Created with Pixso.
	</desc>
	<defs>
		<clipPath id="clip13_573">
			<rect id="uil:linkedin-alt" width="12.008339" height="12.000000" fill="white" fill-opacity="0"/>
		</clipPath>
	</defs>
	<rect id="uil:linkedin-alt" width="12.008339" height="12.000000" fill="#FFFFFF" fill-opacity="0"/>
	<g clip-path="url(#clip13_573)">
		<path id="Vector" d="M8.75543 4.49951C8.30756 4.49951 7.86664 4.61035 7.47205 4.82227C7.43604 4.72705 7.37195 4.64551 7.28839 4.58789C7.20483 4.53027 7.10571 4.49951 7.00421 4.49951L5.00281 4.49951C4.87012 4.49951 4.74286 4.55225 4.64905 4.646C4.55518 4.73975 4.5025 4.86719 4.5025 4.99951L4.5025 10.9995C4.5025 11.1323 4.55518 11.2593 4.64905 11.353C4.74286 11.4468 4.87012 11.4995 5.00281 11.4995L7.00421 11.4995C7.1369 11.4995 7.26416 11.4468 7.35803 11.353C7.45184 11.2593 7.50458 11.1323 7.50458 10.9995L7.50458 8.24951C7.50458 8.11719 7.55731 7.98975 7.65112 7.896C7.74493 7.80225 7.87219 7.74951 8.00494 7.74951C8.13763 7.74951 8.26489 7.80225 8.3587 7.896C8.45258 7.98975 8.50525 8.11719 8.50525 8.24951L8.50525 10.9995C8.50525 11.1323 8.55798 11.2593 8.65179 11.353C8.74567 11.4468 8.87292 11.4995 9.00562 11.4995L11.007 11.4995C11.1397 11.4995 11.267 11.4468 11.3608 11.353C11.4547 11.2593 11.5073 11.1323 11.5073 10.9995L11.5073 7.24951C11.5064 6.52051 11.2162 5.82178 10.7003 5.30615C10.1844 4.79053 9.48499 4.50049 8.75543 4.49951ZM10.5067 10.4995L9.50598 10.4995L9.50598 8.24951C9.50598 7.85156 9.34784 7.47021 9.06635 7.18896C8.78479 6.90771 8.40302 6.74951 8.00494 6.74951C7.60681 6.74951 7.22504 6.90771 6.94354 7.18896C6.66205 7.47021 6.50391 7.85156 6.50391 8.24951L6.50391 10.4995L5.50317 10.4995L5.50317 5.49951L6.50391 5.49951L6.50391 5.85107C6.50385 5.95459 6.53601 6.05566 6.59595 6.14014C6.65594 6.2251 6.74066 6.28857 6.83856 6.32324C6.9364 6.35742 7.04254 6.36035 7.14221 6.33203C7.24188 6.30322 7.3302 6.24463 7.39502 6.16357C7.61963 5.87842 7.92767 5.6709 8.27612 5.56934C8.62463 5.46777 8.99615 5.47754 9.33881 5.59717C9.68146 5.7168 9.97821 5.94043 10.1876 6.23682C10.397 6.5332 10.5085 6.88721 10.5067 7.25L10.5067 10.4995ZM3.50177 4.49951L1.50043 4.49951C1.36768 4.49951 1.24042 4.55225 1.14661 4.646C1.0528 4.73975 1.00006 4.86719 1.00006 4.99951L1.00006 10.9995C1.00006 11.1323 1.0528 11.2593 1.14661 11.353C1.24042 11.4468 1.36768 11.4995 1.50043 11.4995L3.50177 11.4995C3.63452 11.4995 3.76178 11.4468 3.85559 11.353C3.9494 11.2593 4.00214 11.1323 4.00214 10.9995L4.00214 4.99951C4.00214 4.86719 3.9494 4.73975 3.85559 4.646C3.76178 4.55225 3.63452 4.49951 3.50177 4.49951ZM3.00146 10.4995L2.00073 10.4995L2.00073 5.49951L3.00146 5.49951L3.00146 10.4995ZM2.50861 0.770996C2.28949 0.757812 2.06995 0.789062 1.8634 0.863281C1.6568 0.9375 1.46747 1.05273 1.30695 1.20264C1.14642 1.35205 1.01801 1.53271 0.929626 1.7334C0.841187 1.93408 0.794617 2.15088 0.792664 2.37012C0.79071 2.58984 0.833496 2.80713 0.918335 3.00928C1.00317 3.21191 1.12836 3.39453 1.28619 3.54688C1.44409 3.69971 1.63135 3.81836 1.83661 3.896C2.04181 3.97363 2.2608 4.00879 2.4801 3.99951L2.49408 3.99951C2.71332 4.01221 2.9328 3.97998 3.13916 3.90479C3.34552 3.83008 3.53448 3.71387 3.69446 3.56348C3.85443 3.41309 3.98212 3.23193 4.0697 3.03076C4.15729 2.8291 4.203 2.6123 4.20398 2.39307C4.20496 2.17334 4.16119 1.95605 4.07544 1.75439C3.98962 1.55225 3.86359 1.36963 3.70496 1.21777C3.54639 1.06641 3.35852 0.948242 3.15283 0.871582C2.94714 0.794922 2.72791 0.760742 2.50861 0.770996ZM2.49408 2.99951L2.4801 2.99951C2.39355 3.01025 2.30573 3.00195 2.2226 2.97607C2.1394 2.94971 2.06281 2.90625 1.99786 2.84814C1.93298 2.79004 1.88123 2.71875 1.84619 2.63867C1.8111 2.55908 1.79352 2.47266 1.79462 2.38574C1.79462 2.01221 2.07483 1.771 2.50861 1.771C2.59595 1.75977 2.68475 1.76709 2.7691 1.79248C2.85339 1.81836 2.93121 1.86182 2.99731 1.91992C3.06342 1.97803 3.11633 2.0498 3.1524 2.12988C3.18854 2.21045 3.20697 2.29736 3.2066 2.38574C3.2066 2.75879 2.92639 2.99951 2.49359 2.99951L2.49408 2.99951Z" fill="#FFFFFF" fill-opacity="1.000000" fill-rule="nonzero"/>
	</g>
</svg>
