<svg width="12.008331" height="12.000000" viewBox="0 0 12.0083 12" fill="none" xmlns="http://www.w3.org/2000/svg" xmlns:xlink="http://www.w3.org/1999/xlink">
	<desc>
			Created with Pixso.
	</desc>
	<defs>
		<clipPath id="clip13_575">
			<rect id="uil:twitter-alt" width="12.008339" height="12.000000" fill="white" fill-opacity="0"/>
		</clipPath>
	</defs>
	<rect id="uil:twitter-alt" width="12.008339" height="12.000000" fill="#FFFFFF" fill-opacity="0"/>
	<g clip-path="url(#clip13_575)">
		<path id="Vector" d="M11.5032 1.97461C11.5032 1.88672 11.4798 1.7998 11.4354 1.72363C11.391 1.64746 11.3272 1.58398 11.2505 1.54053C11.1737 1.49658 11.0868 1.47412 10.9985 1.4751C10.9102 1.47559 10.8236 1.5 10.7477 1.54492C10.4547 1.71924 10.1392 1.85303 9.81003 1.94189C9.34018 1.53906 8.74094 1.31836 8.12186 1.3208C7.44275 1.32178 6.79053 1.58594 6.30292 2.05859C5.81531 2.53076 5.53049 3.17383 5.50854 3.85254C4.16949 3.63916 2.9559 2.94043 2.09918 1.89014C2.04755 1.82764 1.98166 1.77881 1.90704 1.74707C1.8324 1.71484 1.75125 1.70166 1.67038 1.70801C1.58951 1.71436 1.51151 1.74072 1.44308 1.78418C1.37463 1.82764 1.31784 1.88721 1.27759 1.95801C1.07123 2.31787 0.952698 2.72119 0.931641 3.13574C0.910614 3.5498 0.98764 3.96338 1.15652 4.34229L1.15552 4.34277C1.07947 4.38965 1.01669 4.45508 0.973236 4.53271C0.929779 4.61084 0.907074 4.69873 0.907349 4.7876C0.906525 4.86133 0.911041 4.93457 0.920837 5.00732C0.971954 5.63623 1.25089 6.2251 1.70538 6.66309C1.67456 6.72217 1.65576 6.78662 1.65009 6.85254C1.64441 6.91846 1.65198 6.98535 1.67236 7.04834C1.87051 7.66553 2.29193 8.18652 2.85419 8.50928C2.28287 8.72998 1.66602 8.80713 1.05795 8.7334C0.945465 8.71924 0.831543 8.74414 0.734863 8.80322C0.638214 8.8623 0.564514 8.95264 0.525848 9.05908C0.487183 9.16553 0.48587 9.28174 0.522064 9.38916C0.558289 9.49658 0.629913 9.58838 0.72522 9.6499C1.77106 10.3228 2.98874 10.6807 4.23267 10.6802C5.64325 10.6963 7.01956 10.2456 8.14749 9.39893C9.27542 8.55225 10.0917 7.35693 10.4695 5.99902C10.6461 5.40723 10.7362 4.79297 10.7372 4.17578L10.7367 4.07568C10.9979 3.79443 11.2003 3.46338 11.3319 3.10254C11.4636 2.7417 11.5218 2.3584 11.5032 1.97461ZM9.84906 3.58105C9.76633 3.67822 9.7244 3.8042 9.73196 3.93164C9.73697 4.01416 9.73648 4.09717 9.73648 4.17578C9.73541 4.69727 9.65891 5.21631 9.50931 5.71582C9.20093 6.87158 8.51334 7.89062 7.55661 8.60938C6.59988 9.32861 5.42941 9.70557 4.23267 9.68066C3.80292 9.68066 3.37466 9.63037 2.95676 9.53027C3.48978 9.3584 3.98816 9.09375 4.4288 8.74854C4.51004 8.68457 4.56952 8.59717 4.59903 8.49805C4.62857 8.39893 4.62668 8.29346 4.59369 8.19531C4.56067 8.09766 4.49814 8.01221 4.41467 7.95166C4.33121 7.89062 4.23093 7.85693 4.12756 7.85547C3.71164 7.84863 3.31448 7.68115 3.01981 7.3877C3.09451 7.37402 3.16873 7.35645 3.24246 7.33545C3.35056 7.30469 3.44516 7.23828 3.51102 7.14746C3.57687 7.05664 3.6102 6.9458 3.60556 6.83398C3.60095 6.72168 3.55865 6.61426 3.48553 6.52881C3.41241 6.44385 3.31268 6.38574 3.20242 6.36377C2.961 6.31641 2.73386 6.21338 2.5386 6.06396C2.34332 5.91406 2.18527 5.72168 2.07666 5.50098C2.16708 5.51318 2.25812 5.521 2.34933 5.52393C2.45776 5.52539 2.56393 5.49268 2.65247 5.43018C2.74097 5.36768 2.80725 5.27881 2.84167 5.17578C2.87473 5.07227 2.87308 4.96045 2.83694 4.85791C2.80084 4.75537 2.73224 4.66748 2.64154 4.60742C2.42136 4.46094 2.24097 4.26221 2.11655 4.02881C1.9921 3.79541 1.92752 3.53516 1.92856 3.271C1.92856 3.23779 1.92957 3.2041 1.93155 3.17188C3.05307 4.21729 4.50781 4.8335 6.0394 4.91162C6.11673 4.91455 6.19373 4.8999 6.26456 4.86865C6.33536 4.83789 6.39816 4.79102 6.44818 4.73193C6.49774 4.67236 6.53284 4.60254 6.55072 4.52734C6.5686 4.45215 6.56879 4.37354 6.55127 4.29834C6.52261 4.17871 6.508 4.05664 6.50772 3.93359C6.50827 3.50635 6.6785 3.09619 6.98108 2.79395C7.28366 2.4917 7.69391 2.32129 8.12186 2.3208C8.34207 2.32031 8.56006 2.36523 8.76199 2.45312C8.96396 2.54053 9.14548 2.66943 9.29517 2.83105C9.35287 2.89307 9.42551 2.93896 9.50616 2.96533C9.58685 2.99121 9.67285 2.99609 9.75598 2.97998C9.96155 2.93994 10.1641 2.88623 10.3624 2.81885C10.2272 3.09521 10.0545 3.35156 9.84906 3.58105Z" fill="#FFFFFF" fill-opacity="1.000000" fill-rule="nonzero"/>
	</g>
</svg>
