<svg width="12.008362" height="12.000000" viewBox="0 0 12.0084 12" fill="none" xmlns="http://www.w3.org/2000/svg" xmlns:xlink="http://www.w3.org/1999/xlink">
	<desc>
			Created with Pixso.
	</desc>
	<defs>
		<clipPath id="clip13_577">
			<rect id="uil:instagram" width="12.008339" height="12.000000" fill="white" fill-opacity="0"/>
		</clipPath>
	</defs>
	<rect id="uil:instagram" width="12.008339" height="12.000000" fill="#FFFFFF" fill-opacity="0"/>
	<g clip-path="url(#clip13_577)">
		<path id="Vector" d="M8.67535 2.72998C8.55658 2.72998 8.44049 2.76514 8.34174 2.83105C8.24304 2.89697 8.16608 2.99072 8.12061 3.10059C8.0752 3.20996 8.06329 3.33057 8.08643 3.44727C8.10962 3.56348 8.16681 3.67041 8.25079 3.75439C8.33472 3.83838 8.44171 3.89551 8.55817 3.91846C8.67468 3.94141 8.79541 3.92969 8.90509 3.88428C9.01483 3.83887 9.10858 3.76221 9.17456 3.66357C9.24054 3.56445 9.27576 3.44873 9.27576 3.33008C9.27576 3.1709 9.21246 3.01807 9.09991 2.90576C8.9873 2.79346 8.83459 2.72998 8.67535 2.72998ZM10.9769 3.93994C10.9672 3.52539 10.8895 3.11475 10.7468 2.7251C10.6196 2.3916 10.4215 2.08984 10.1664 1.83984C9.91858 1.5835 9.61578 1.38721 9.28076 1.26514C8.89178 1.11816 8.48059 1.03857 8.06488 1.02979C7.53455 1 7.36444 1 6.00348 1C4.64252 1 4.47241 1 3.94202 1.02979C3.52631 1.03857 3.11511 1.11816 2.7262 1.26514C2.39178 1.38818 2.08923 1.58496 1.84058 1.83984C1.58411 2.0874 1.38733 2.39014 1.2652 2.7251C1.11816 3.11377 1.03864 3.52441 1.03003 3.93994C1 4.47021 1 4.64014 1 6C1 7.35986 1 7.52979 1.03003 8.06006C1.03864 8.47559 1.11816 8.88623 1.2652 9.2749C1.38733 9.60986 1.58411 9.9126 1.84058 10.1602C2.08923 10.415 2.39178 10.6118 2.7262 10.7349C3.11511 10.8818 3.52631 10.9614 3.94202 10.9702C4.47241 11 4.64252 11 6.00348 11C7.36444 11 7.53455 11 8.06488 10.9702C8.48059 10.9614 8.89178 10.8818 9.28076 10.7349C9.61578 10.6128 9.91858 10.4165 10.1664 10.1602C10.4227 9.91113 10.6208 9.60889 10.7468 9.2749C10.8895 8.88525 10.9672 8.47461 10.9769 8.06006C10.9769 7.52979 11.007 7.35986 11.007 6C11.007 4.64014 11.007 4.47021 10.9769 3.93994ZM10.0763 8C10.0726 8.31738 10.0151 8.63184 9.90619 8.93018C9.82629 9.14746 9.698 9.34424 9.53094 9.50488C9.36865 9.67041 9.1723 9.79834 8.95551 9.87988C8.65717 9.98877 8.34247 10.0464 8.0249 10.0498C7.52454 10.0752 7.33942 10.0801 6.0235 10.0801C4.70758 10.0801 4.52246 10.0801 4.02209 10.0498C3.69232 10.0562 3.36395 10.0054 3.05145 9.8999C2.84418 9.81396 2.6568 9.68652 2.50104 9.5249C2.33496 9.36426 2.20825 9.16748 2.1308 8.9502C2.00861 8.64746 1.94086 8.32617 1.93066 8C1.93066 7.5 1.90063 7.31494 1.90063 6C1.90063 4.68506 1.90063 4.5 1.93066 4C1.93286 3.67529 1.99219 3.354 2.10577 3.0498C2.19385 2.83887 2.32904 2.65088 2.50104 2.5C2.65308 2.32812 2.84094 2.19141 3.05145 2.1001C3.35638 1.99023 3.67786 1.93262 4.00208 1.93018C4.50244 1.93018 4.68756 1.8999 6.00348 1.8999C7.3194 1.8999 7.50452 1.8999 8.00488 1.93018C8.32245 1.93359 8.63715 1.99121 8.93549 2.1001C9.1629 2.18457 9.36694 2.32129 9.53094 2.5C9.69489 2.65381 9.823 2.84131 9.90619 3.0498C10.0174 3.35449 10.075 3.67578 10.0763 4C10.1013 4.5 10.1063 4.68506 10.1063 6C10.1063 7.31494 10.1013 7.5 10.0763 8ZM6.00348 3.43506C5.49603 3.43604 5.00024 3.5874 4.5788 3.86963C4.15735 4.15234 3.82916 4.55322 3.63562 5.02197C3.44214 5.49072 3.39203 6.00635 3.49164 6.50342C3.59125 7.00049 3.83606 7.45703 4.19525 7.81543C4.55444 8.17383 5.01178 8.41748 5.50958 8.51611C6.00732 8.61475 6.52319 8.56348 6.99188 8.36914C7.46063 8.1748 7.86121 7.84619 8.14301 7.42432C8.42487 7.00293 8.57526 6.50732 8.57526 6C8.57593 5.6626 8.50983 5.32812 8.38074 5.0166C8.25165 4.70459 8.06219 4.42139 7.82318 4.18311C7.58417 3.94482 7.30035 3.75586 6.98804 3.62744C6.67578 3.49902 6.34113 3.43359 6.00348 3.43506ZM6.00348 7.66504C5.67395 7.66504 5.35181 7.56738 5.07782 7.38428C4.80383 7.20166 4.59027 6.94141 4.46417 6.63721C4.33801 6.33301 4.30505 5.99805 4.36932 5.67529C4.43359 5.35205 4.59229 5.05566 4.82532 4.82275C5.05835 4.58984 5.35522 4.43115 5.67841 4.36719C6.00165 4.30273 6.33661 4.33594 6.64111 4.46191C6.94556 4.58789 7.20575 4.80127 7.38885 5.0752C7.5719 5.34863 7.66962 5.6709 7.66962 6C7.66962 6.21875 7.62653 6.43506 7.54279 6.63721C7.45905 6.83936 7.33636 7.02295 7.18164 7.17725C7.02692 7.33203 6.84326 7.45459 6.64111 7.53809C6.43896 7.62207 6.22229 7.66504 6.00348 7.66504Z" fill="#FFFFFF" fill-opacity="1.000000" fill-rule="nonzero"/>
	</g>
</svg>
